<svg width="61" height="61" viewBox="0 0 61 61" fill="none" xmlns="http://www.w3.org/2000/svg">
<path d="M13.9444 53.5417L14.437 52.8578C14.8244 52.3201 23.9167 39.6075 23.9167 32.1458C23.9167 25.2547 19.2869 20.625 12.3958 20.625C5.50473 20.625 0.875 25.2547 0.875 32.1458C0.875 39.6075 9.96724 52.3201 10.3547 52.8578L10.8473 53.5417H13.9444ZM4.16667 32.1458C4.16667 27.1465 7.39645 23.9167 12.3958 23.9167C17.3952 23.9167 20.625 27.1465 20.625 32.1458C20.625 37.0527 15.1715 45.9996 12.3958 50.037C9.62014 45.9996 4.16667 37.0527 4.16667 32.1458ZM47.0556 33.7917H50.1527L50.6453 33.1078C51.0328 32.5701 60.125 19.8575 60.125 12.3958C60.125 5.50473 55.4953 0.875 48.6042 0.875C41.7131 0.875 37.0833 5.50473 37.0833 12.3958C37.0833 19.8575 46.1756 32.5701 46.563 33.1078L47.0556 33.7917ZM48.6042 4.16667C53.6036 4.16667 56.8333 7.39645 56.8333 12.3958C56.8333 17.3027 51.3799 26.2496 48.6042 30.287C45.8285 26.2496 40.375 17.3027 40.375 12.3958C40.375 7.39645 43.6048 4.16667 48.6042 4.16667ZM53.1302 53.5417C53.1302 56.8133 50.4454 60.125 45.3125 60.125H10.75V56.8333H45.3125C48.4394 56.8333 49.8385 55.1803 49.8385 53.5417C49.8385 51.9031 48.4394 50.25 45.3125 50.25H35.4375C30.3046 50.25 27.6198 46.9383 27.6198 43.6667C27.6198 40.3951 30.3046 37.0833 35.4375 37.0833H50.25V40.375H35.4375C32.3106 40.375 30.9115 42.0281 30.9115 43.6667C30.9115 45.3053 32.3106 46.9583 35.4375 46.9583H45.3125C50.4454 46.9583 53.1302 50.2701 53.1302 53.5417ZM48.6042 14.0417C48.3896 14.0417 48.1758 13.9918 47.9781 13.9098C47.7643 13.8271 47.5996 13.7122 47.4356 13.5642C47.3698 13.4814 47.287 13.3995 47.238 13.3175C47.1721 13.2186 47.1223 13.1198 47.0893 13.0209C47.0403 12.922 47.0074 12.8233 46.9913 12.7243C46.9745 12.6096 46.9583 12.5107 46.9583 12.3958C46.9583 11.9674 47.1392 11.54 47.4356 11.2273C47.5996 11.0787 47.7643 10.9636 47.9781 10.881C48.5872 10.6182 49.3114 10.7661 49.7725 11.2273C49.8384 11.3093 49.9203 11.3912 49.9694 11.474C50.0352 11.5729 50.0851 11.6717 50.118 11.7698C50.1671 11.8687 50.2 11.9674 50.2169 12.0663C50.233 12.1812 50.25 12.2969 50.25 12.3958C50.25 12.5107 50.233 12.6096 50.2171 12.7245C50.2001 12.8234 50.1672 12.9222 50.1182 13.0211C50.0853 13.12 50.0354 13.2187 49.9696 13.3177C49.9205 13.3996 49.8385 13.4816 49.7727 13.5644C49.46 13.86 49.0318 14.0417 48.6042 14.0417ZM12.3958 33.7917C11.9674 33.7917 11.54 33.61 11.2273 33.3144C10.9309 33.0017 10.75 32.5734 10.75 32.1458C10.75 31.7174 10.9309 31.29 11.2273 30.9773C11.6878 30.5329 12.4118 30.3682 13.0209 30.631C13.2347 30.7138 13.3995 30.8287 13.5642 30.9773C13.712 31.1412 13.8271 31.3229 13.9098 31.5198C13.9918 31.7174 14.0417 31.9312 14.0417 32.1458C14.0417 32.5734 13.86 33.0017 13.5644 33.3144C13.2517 33.61 12.8234 33.7917 12.3958 33.7917Z" fill="#676B7E"/>
</svg>
