<svg width="102" height="104" viewBox="0 0 102 104" fill="none" xmlns="http://www.w3.org/2000/svg">
<path d="M31 70.4375C40.891 70.4375 48.9375 62.391 48.9375 52.5C48.9375 42.609 40.891 34.5625 31 34.5625C21.109 34.5625 13.0625 42.609 13.0625 52.5C13.0625 62.391 21.109 70.4375 31 70.4375ZM18.4466 55.0625H22.8546C23.0775 57.8989 23.8327 60.8948 25.3643 63.9487C21.8693 62.2198 19.2461 58.9854 18.4466 55.0625ZM33.9884 55.0625C33.6968 57.7508 32.8245 60.6039 31 63.5113C29.1755 60.6039 28.3032 57.7511 28.0116 55.0625H33.9884ZM28.1113 49.9375C28.6274 46.5691 29.883 43.7288 31 41.7462C32.117 43.7288 33.3726 46.5691 33.8887 49.9375H28.1113ZM36.6357 63.9487C38.1673 60.8948 38.9225 57.8989 39.1454 55.0625H43.5534C42.7539 58.9854 40.1307 62.2198 36.6357 63.9487ZM43.5534 49.9375H39.0155C38.5545 46.3849 37.4098 43.2614 36.237 40.8345C39.9388 42.5039 42.7224 45.8616 43.5534 49.9375ZM25.763 40.8345C24.5902 43.2614 23.4455 46.3849 22.9845 49.9375H18.4466C19.2776 45.8616 22.0612 42.5039 25.763 40.8345ZM15.625 85.8125H46.375V90.9375H15.625V85.8125ZM80.4383 38.9367L77.8758 36.3742L81.4994 32.7506L84.0619 35.3131L80.4383 38.9367ZM76.3742 27.6258L78.9367 30.1883L75.3133 33.8117L72.7508 31.2492L76.3742 27.6258ZM71.2492 22.5008L73.8117 25.0633L70.1883 28.6867L67.6258 26.1242L71.2492 22.5008ZM93.5611 37.125L101.249 29.4375L90.9986 19.1875H89.9375C86.2014 19.1875 82.25 15.2361 82.25 11.5V10.4389L72 0.188873L57.3758 14.8131L60.9994 18.4367L72 7.43614L77.185 12.6214C77.7956 18.4044 83.0331 23.6422 88.8164 24.2525L94.0014 29.4375L61.75 61.6889V24.3125C61.75 21.4861 59.4514 19.1875 56.625 19.1875H0.25V103.75H56.625C59.4514 103.75 61.75 101.451 61.75 98.625V84.3111L101.249 44.8125L93.5611 37.125ZM56.625 98.625H5.375V24.3125H56.625V98.625ZM61.75 68.9361L89.9375 40.7486L94.0014 44.8125L61.75 77.0639V68.9361ZM66.1242 17.3758L68.6867 19.9383L65.0633 23.5617L62.5008 20.9992L66.1242 17.3758Z" fill="#676B7E"/>
</svg>
